<?xml version="1.0" encoding="UTF-8"?>
<svg version="1.1" xmlns="http://www.w3.org/2000/svg" width="259" height="194">
<path d="M0 0 C18.108163 14.55662652 28.46663747 33.28260624 31.02734375 56.43359375 C33.00348736 80.23896435 24.99536255 101.64937305 9.83984375 119.68359375 C-4.89704429 135.26625101 -25.56677215 144.33296123 -46.91894531 145.40991211 C-70.12170337 146.04256123 -91.62385597 137.71034823 -108.55810547 121.82128906 C-123.46144588 107.20089091 -131.63767155 87.03780675 -132.01171875 66.26416016 C-131.93810831 45.07815601 -125.40450754 25.18275398 -110.97265625 9.43359375 C-110.12767578 8.48613281 -110.12767578 8.48613281 -109.265625 7.51953125 C-80.60772129 -22.95046474 -32.56758872 -23.8721633 0 0 Z " fill="#FDEF13" transform="translate(179.97265625,32.56640625)"/>
<path d="M0 0 C2.87013652 1.10389475 2.87013652 1.10389475 5.828125 -0.1953125 C8.52935606 -0.03520129 11.14687731 0.40909358 13.828125 0.8046875 C13.828125 4.47135417 13.828125 8.13802083 13.828125 11.8046875 C14.77968078 14.55313465 15.82085952 17.26230184 16.85546875 19.98046875 C20.83748099 31.54269706 19.45226631 42.76337049 14.828125 53.8046875 C13.63061379 58.79431753 13.72606713 63.70179415 13.828125 68.8046875 C13.17585938 68.75828125 12.52359375 68.711875 11.8515625 68.6640625 C5.95984139 68.42074658 2.41233956 68.6788944 -2.171875 72.8046875 C-2.858547 74.12782914 -3.52331415 75.4624539 -4.171875 76.8046875 C-6.20676557 79.86837306 -8.38775776 82.82757871 -10.546875 85.8046875 C-11.124375 86.61164063 -11.701875 87.41859375 -12.296875 88.25 C-15.03650212 92.040443 -17.6892026 95.64797951 -21.171875 98.8046875 C-23.06908696 96.28488915 -24.96438502 93.76365717 -26.859375 91.2421875 C-27.38982422 90.53771484 -27.92027344 89.83324219 -28.46679688 89.10742188 C-31.76531832 84.71613873 -34.99746374 80.28655572 -38.171875 75.8046875 C-37.841875 75.1446875 -37.511875 74.4846875 -37.171875 73.8046875 C-36.12 74.26875 -36.12 74.26875 -35.046875 74.7421875 C-28.51353882 77.15668131 -22.04388509 76.91473748 -15.171875 76.8046875 C-16.05488281 76.77890625 -16.93789062 76.753125 -17.84765625 76.7265625 C-26.02562248 76.34006356 -32.6585982 75.00478688 -40.171875 71.8046875 C-45.330742 69.7411407 -49.69264754 69.5855184 -55.171875 69.8046875 C-55.36593978 68.15961532 -55.55195435 66.51359156 -55.734375 64.8671875 C-55.83878906 63.95066406 -55.94320312 63.03414063 -56.05078125 62.08984375 C-56.09074219 61.33574219 -56.13070312 60.58164063 -56.171875 59.8046875 C-55.676875 59.3096875 -55.676875 59.3096875 -55.171875 58.8046875 C-55.52121094 57.85207031 -55.87054688 56.89945313 -56.23046875 55.91796875 C-56.69029166 54.65110971 -57.14991662 53.3841788 -57.609375 52.1171875 C-57.83947266 51.49134766 -58.06957031 50.86550781 -58.30664062 50.22070312 C-63.15437385 36.8016155 -60.39481361 25.85476275 -56.54296875 12.6484375 C-56.06441244 10.27076826 -56.11463715 8.03906393 -56.171875 5.6171875 C-56.209444 4.01346082 -56.21860683 2.40817334 -56.171875 0.8046875 C-55.841875 0.4746875 -55.511875 0.1446875 -55.171875 -0.1953125 C-53.400248 -0.16222609 -51.62927406 -0.09274929 -49.859375 -0.0078125 C-43.99612721 0.06207126 -39.40486908 -1.13056684 -33.9609375 -3.22265625 C-21.71640099 -7.49280974 -11.65254549 -4.3912302 0 0 Z " fill="#FADE17" transform="translate(150.171875,62.1953125)"/>
<path d="M0 0 C18.108163 14.55662652 28.46663747 33.28260624 31.02734375 56.43359375 C33.00348736 80.23896435 24.99536255 101.64937305 9.83984375 119.68359375 C-4.89704429 135.26625101 -25.56677215 144.33296123 -46.91894531 145.40991211 C-70.12170337 146.04256123 -91.62385597 137.71034823 -108.55810547 121.82128906 C-123.46144588 107.20089091 -131.63767155 87.03780675 -132.01171875 66.26416016 C-131.93810831 45.07815601 -125.40450754 25.18275398 -110.97265625 9.43359375 C-110.12767578 8.48613281 -110.12767578 8.48613281 -109.265625 7.51953125 C-80.60772129 -22.95046474 -32.56758872 -23.8721633 0 0 Z M-105.97265625 13.43359375 C-106.70871094 14.2121875 -107.44476563 14.99078125 -108.203125 15.79296875 C-120.70456547 30.20468735 -126.90331574 49.23220344 -126.2265625 68.203125 C-124.41147784 91.29658678 -113.5656409 109.66552196 -96.34765625 124.68359375 C-78.5630924 138.24857159 -57.43185572 141.66631344 -35.66015625 138.80859375 C-17.02372337 135.00256168 0.56123937 123.93633433 11.34765625 108.16015625 C22.849433 89.95254657 27.97608352 69.91575178 23.52734375 48.55859375 C20.64567585 35.89356881 14.78400783 24.07344069 6.02734375 14.43359375 C5.38539063 13.70011719 4.7434375 12.96664062 4.08203125 12.2109375 C-9.26877722 -2.14980297 -27.16614361 -9.88850012 -46.64453125 -10.8203125 C-69.96302604 -11.56571403 -89.95233015 -3.5834446 -105.97265625 13.43359375 Z " fill="#EC3035" transform="translate(179.97265625,32.56640625)"/>
<path d="M0 0 C2.87013652 1.10389475 2.87013652 1.10389475 5.828125 -0.1953125 C8.52935606 -0.03520129 11.14687731 0.40909358 13.828125 0.8046875 C13.828125 4.47135417 13.828125 8.13802083 13.828125 11.8046875 C14.77968078 14.55313465 15.82085952 17.26230184 16.85546875 19.98046875 C20.35581973 30.14413847 20.12903458 41.61590592 15.96875 51.50390625 C14.48971231 54.48730761 12.84653294 57.15552708 10.828125 59.8046875 C10.23386719 60.6090625 9.63960938 61.4134375 9.02734375 62.2421875 C3.65602892 68.50077104 -4.98306755 73.46246192 -13.171875 74.8046875 C-26.59934906 75.54522457 -26.59934906 75.54522457 -32.171875 73.8046875 C-31.841875 72.1546875 -31.511875 70.5046875 -31.171875 68.8046875 C-30.841875 69.7946875 -30.511875 70.7846875 -30.171875 71.8046875 C-29.511875 71.8046875 -28.851875 71.8046875 -28.171875 71.8046875 C-28.501875 70.8146875 -28.831875 69.8246875 -29.171875 68.8046875 C-29.51414917 67.47362128 -29.84939243 66.14068671 -30.171875 64.8046875 C-29.26566406 64.83949219 -28.35945313 64.87429687 -27.42578125 64.91015625 C-16.47065653 65.15360347 -7.88957897 64.1014827 0.38671875 56.34375 C6.17945419 50.18987145 9.00321646 43.24147923 9.328125 34.8046875 C9.0157569 26.69352904 6.35996354 19.33189972 0.69140625 13.41015625 C-7.16712099 6.6389724 -14.39677564 4.82648873 -24.5 5.42578125 C-33.5376822 6.35839314 -39.07038424 10.03040878 -45.171875 16.8046875 C-50.93529277 24.41776027 -51.24037045 32.5377363 -50.171875 41.8046875 C-48.17894774 50.17720873 -43.40438761 57.07573695 -36.171875 61.8046875 C-36.831875 63.4546875 -37.491875 65.1046875 -38.171875 66.8046875 C-38.501875 65.4846875 -38.831875 64.1646875 -39.171875 62.8046875 C-39.501875 65.1146875 -39.831875 67.4246875 -40.171875 69.8046875 C-50.04555284 65.0735502 -55.33553368 57.66324356 -59.26171875 47.6015625 C-63.24135863 35.37228287 -60.01131175 24.53989922 -56.54296875 12.6484375 C-56.06441244 10.27076826 -56.11463715 8.03906393 -56.171875 5.6171875 C-56.209444 4.01346082 -56.21860683 2.40817334 -56.171875 0.8046875 C-55.841875 0.4746875 -55.511875 0.1446875 -55.171875 -0.1953125 C-53.400248 -0.16222609 -51.62927406 -0.09274929 -49.859375 -0.0078125 C-43.99612721 0.06207126 -39.40486908 -1.13056684 -33.9609375 -3.22265625 C-21.71640099 -7.49280974 -11.65254549 -4.3912302 0 0 Z " fill="#D6D1D1" transform="translate(150.171875,62.1953125)"/>
<path d="M0 0 C17.12910423 13.81238596 27.19579041 31.6514905 30.06640625 53.47265625 C31.40995637 73.05909777 26.22117583 91.65830416 13.93359375 107.1640625 C0.41485962 122.59049256 -15.99320781 133.75892511 -36.93359375 135.47265625 C-58.0184683 136.76855515 -77.60638148 132.54646917 -93.98266602 118.42333984 C-96.40950916 116.19733079 -98.67526592 113.87148702 -100.93359375 111.47265625 C-101.66964844 110.6940625 -102.40570313 109.91546875 -103.1640625 109.11328125 C-111.85586744 99.09332816 -117.61157665 86.4836281 -119.93359375 73.47265625 C-120.1140625 72.50070313 -120.29453125 71.52875 -120.48046875 70.52734375 C-123.33002878 51.31737871 -117.78511471 32.37254726 -106.91796875 16.53515625 C-105.01412938 14.07665502 -103.03477975 11.76373332 -100.93359375 9.47265625 C-100.30839844 8.76753906 -99.68320313 8.06242187 -99.0390625 7.3359375 C-73.30631715 -20.17870875 -29.53928863 -21.71047103 0 0 Z M-101.4921875 14.28125 C-111.95721412 27.28753098 -117.32896071 42.31362056 -117.12109375 58.91015625 C-117.12044922 59.91498047 -117.11980469 60.91980469 -117.11914062 61.95507812 C-117.5188079 66.55400145 -117.5188079 66.55400145 -115.93359375 70.47265625 C-115.82475256 71.88759176 -115.74761758 73.30498568 -115.68359375 74.72265625 C-114.17367871 90.75978422 -104.17067769 105.40723782 -92.28515625 115.78515625 C-76.04234995 128.67488994 -57.60168149 134.13239709 -36.93359375 132.47265625 C-16.98601462 129.93345753 0.52658586 119.34151856 12.84765625 103.66015625 C24.83076434 86.44498688 29.08347437 65.75012944 25.67089844 45.07666016 C21.75504929 27.32193329 10.25605008 10.44277146 -4.93359375 0.47265625 C-37.61908743 -19.2007762 -75.62222972 -14.11645938 -101.4921875 14.28125 Z " fill="#FDEA14" transform="translate(174.93359375,36.52734375)"/>
<path d="M0 0 C13.50500129 11.22215911 24.05555063 28.13895315 25.96484375 45.85009766 C26.10112802 48.66068145 26.13333752 51.44514567 26.1027832 54.25878906 C26.09448486 55.25837646 26.08618652 56.25796387 26.07763672 57.2878418 C25.62475007 77.36474219 17.93939922 94.94077582 3.6652832 109.07128906 C-11.26992905 122.85763883 -30.01525431 128.84244465 -50.0690918 128.30957031 C-65.72954537 127.59805015 -80.43555325 121.22636717 -92.3347168 111.07128906 C-92.91092773 110.636875 -93.48713867 110.20246094 -94.08081055 109.75488281 C-105.4098136 100.89857976 -113.43632239 86.04303648 -116.3347168 72.07128906 C-116.5222168 68.44628906 -116.5222168 68.44628906 -116.3347168 66.07128906 C-115.6747168 66.07128906 -115.0147168 66.07128906 -114.3347168 66.07128906 C-114.04338867 67.17085938 -113.75206055 68.27042969 -113.4519043 69.40332031 C-108.03312685 89.216778 -98.23041281 105.19399628 -80.0456543 115.65722656 C-62.30252652 124.91228745 -43.68465655 126.98712284 -24.3659668 121.45019531 C-6.1721796 115.56525885 6.58579656 103.62686364 15.6652832 87.07128906 C17.29091982 83.7962492 18.57592591 80.55943312 19.6652832 77.07128906 C19.96176758 76.15089844 20.25825195 75.23050781 20.5637207 74.28222656 C25.58227857 56.83237857 22.62930175 38.00942825 14.09887695 22.16113281 C3.89420024 5.32696775 -10.68971653 -5.97362274 -29.8972168 -10.80371094 C-49.35932976 -14.39738252 -67.62066906 -11.92479497 -84.3347168 -0.92871094 C-100.07178063 10.2357842 -108.98886309 24.46023193 -113.3347168 43.07128906 C-113.50745117 43.70309082 -113.68018555 44.33489258 -113.8581543 44.98583984 C-114.35402702 47.15579106 -114.54003504 49.17765384 -114.65112305 51.39941406 C-114.69301758 52.19863281 -114.73491211 52.99785156 -114.77807617 53.82128906 C-114.83705078 55.05878906 -114.83705078 55.05878906 -114.8972168 56.32128906 C-114.94040039 57.16175781 -114.98358398 58.00222656 -115.02807617 58.86816406 C-115.13380223 60.93569577 -115.23472975 63.00347187 -115.3347168 65.07128906 C-115.9947168 65.07128906 -116.6547168 65.07128906 -117.3347168 65.07128906 C-118.37806461 41.85439259 -114.19841337 23.8179612 -98.3112793 6.14941406 C-72.24610061 -21.53737037 -29.40364573 -23.06920553 0 0 Z " fill="#ED3236" transform="translate(175.334716796875,40.9287109375)"/>
<path d="M0 0 C0.495 1.98 0.495 1.98 1 4 C3.41619823 4.25030977 3.41619823 4.25030977 6 4 C6.66 3.01 7.32 2.02 8 1 C7.57658074 9.89180452 4.59389179 16.79769764 -1.3671875 23.52734375 C-11.46804821 32.63745018 -21.43722038 35.36468232 -34.64453125 35.203125 C-37.28865373 35.04306171 -39.48963422 34.7840941 -42 34 C-41.67 32.35 -41.34 30.7 -41 29 C-40.67 29.99 -40.34 30.98 -40 32 C-39.34 32 -38.68 32 -38 32 C-38.33 31.01 -38.66 30.02 -39 29 C-39.34227417 27.66893378 -39.67751743 26.33599921 -40 25 C-39.09378906 25.03480469 -38.18757813 25.06960937 -37.25390625 25.10546875 C-26.32518381 25.34832925 -17.74061849 24.30852756 -9.4765625 16.57421875 C-4.92490437 11.73374982 -2.49209102 6.09790414 0 0 Z " fill="#E9E4E4" transform="translate(160,102)"/>
<path d="M0 0 C1.69141656 0.08963062 3.37959602 0.24577676 5.0625 0.4375 C6.44115234 0.59025391 6.44115234 0.59025391 7.84765625 0.74609375 C8.55792969 0.82988281 9.26820313 0.91367187 10 1 C10 4.66666667 10 8.33333333 10 12 C10.95155578 14.74844715 11.99273452 17.45761434 13.02734375 20.17578125 C14.84208672 25.44509516 15.13146831 30.26850917 15.0625 35.8125 C15.05798828 36.50537109 15.05347656 37.19824219 15.04882812 37.91210938 C15.03713156 39.60811068 15.01919924 41.30406703 15 43 C12.64561267 44.42944945 11.51967567 45.08661261 8.75 44.625 C8.1725 44.41875 7.595 44.2125 7 44 C6.90203125 43.03320312 6.8040625 42.06640625 6.703125 41.0703125 C5.42345447 29.9283536 3.65054326 19.92789345 -5 12 C-6.6396875 10.9171875 -6.6396875 10.9171875 -8.3125 9.8125 C-11 8 -11 8 -11.875 5.75 C-11.91625 5.1725 -11.9575 4.595 -12 4 C-9.29862359 1.40667864 -8.15657758 1.00530771 -4.3125 0.875 C-3.219375 0.91625 -2.12625 0.9575 -1 1 C-0.67 0.67 -0.34 0.34 0 0 Z " fill="#E3DFDF" transform="translate(154,62)"/>
<path d="M0 0 C0.6084375 0.38929687 1.216875 0.77859375 1.84375 1.1796875 C2.7203125 1.73914063 3.596875 2.29859375 4.5 2.875 C5.97919922 3.82246094 5.97919922 3.82246094 7.48828125 4.7890625 C10.06724173 6.42714239 12.67332227 8.01380102 15.29296875 9.5859375 C16.02 10.02695801 16.74703125 10.46797852 17.49609375 10.92236328 C18.94785258 11.80189364 20.40487083 12.67280526 21.8671875 13.53466797 C23.6299115 14.60909428 25.3228658 15.79633531 27 17 C27 17.99 27 18.98 27 20 C25.45874023 21.27099609 25.45874023 21.27099609 23.30859375 22.5234375 C22.52806641 22.9875 21.74753906 23.4515625 20.94335938 23.9296875 C20.11642578 24.40664062 19.28949219 24.88359375 18.4375 25.375 C12.76592506 28.70208022 7.29298501 32.09242717 2 36 C1.34 35.67 0.68 35.34 0 35 C0.2165625 34.44054687 0.433125 33.88109375 0.65625 33.3046875 C4.5626547 22.05568878 3.82783624 11.16452237 0 0 Z " fill="#0404F4" transform="translate(168,79)"/>
<path d="M0 0 C0.33 0.66 0.66 1.32 1 2 C0.54367188 3.27230469 0.54367188 3.27230469 0.078125 4.5703125 C-1.24860881 8.79086425 -1.2939781 12.48451983 -1.25 16.875 C-1.25773437 17.63941406 -1.26546875 18.40382813 -1.2734375 19.19140625 C-1.25562928 24.43592831 -0.44684701 28.95900128 1 34 C-2.74876369 32.62338544 -5.94495205 30.90090804 -9.30078125 28.7421875 C-10.76547852 27.80439453 -10.76547852 27.80439453 -12.25976562 26.84765625 C-13.26716797 26.19667969 -14.27457031 25.54570313 -15.3125 24.875 C-16.33923828 24.21628906 -17.36597656 23.55757812 -18.42382812 22.87890625 C-20.95167965 21.2563783 -23.47694337 19.62997014 -26 18 C-23.16752998 14.98255235 -20.29801737 12.74526672 -16.796875 10.546875 C-15.32734375 9.61875 -15.32734375 9.61875 -13.828125 8.671875 C-12.81234375 8.03765625 -11.7965625 7.4034375 -10.75 6.75 C-9.203125 5.77546875 -9.203125 5.77546875 -7.625 4.78125 C-5.08624889 3.18277708 -2.5445443 1.58922862 0 0 Z " fill="#0505F2" transform="translate(89,80)"/>
<path d="M0 0 C4.4246231 4.11326074 7.80479078 8.67673381 11.25 13.625 C11.79140625 14.388125 12.3328125 15.15125 12.890625 15.9375 C16.8687996 21.60639881 16.8687996 21.60639881 18 25 C16.88625 24.67 15.7725 24.34 14.625 24 C4.06611054 21.67034026 -8.05752866 21.58112385 -18 26 C-14.85521303 20.20738006 -11.20211564 14.9403773 -7.3125 9.625 C-6.42208008 8.39716797 -6.42208008 8.39716797 -5.51367188 7.14453125 C-1.16636588 1.16636588 -1.16636588 1.16636588 0 0 Z " fill="#0606F1" transform="translate(129,33)"/>
<path d="M0 0 C1.10794922 0.32484375 1.10794922 0.32484375 2.23828125 0.65625 C14.09357195 3.91005278 23.23316768 3.44996131 35 0 C32.6874511 4.8712166 29.59636633 9.18196078 26.5625 13.625 C25.97662109 14.49640625 25.39074219 15.3678125 24.78710938 16.265625 C24.21927734 17.09835938 23.65144531 17.93109375 23.06640625 18.7890625 C22.55021729 19.54912598 22.03402832 20.30918945 21.50219727 21.09228516 C20 23 20 23 17 25 C15.10278804 22.48020165 13.20748998 19.95896967 11.3125 17.4375 C10.78205078 16.73302734 10.25160156 16.02855469 9.70507812 15.30273438 C8.1304333 13.20642808 6.56346955 11.10465145 5 9 C4.50161621 8.33371582 4.00323242 7.66743164 3.48974609 6.98095703 C0 2.23317901 0 2.23317901 0 0 Z " fill="#0505F2" transform="translate(112,136)"/>
<path d="M0 0 C1.32 0.33 2.64 0.66 4 1 C3.67 1.33 3.34 1.66 3 2 C4.32 2.33 5.64 2.66 7 3 C7.33 2.34 7.66 1.68 8 1 C8.32871094 2.14275391 8.32871094 2.14275391 8.6640625 3.30859375 C11.70851752 13.22163632 15.56885656 20.77701318 24 27 C23.01 29.475 23.01 29.475 22 32 C21.67 30.68 21.34 29.36 21 28 C20.67 30.31 20.34 32.62 20 35 C10.34945804 30.37578198 4.635851 22.92981749 0.83203125 13.01953125 C-0.3815297 8.61538752 -0.45034853 4.52350077 0 0 Z " fill="#FBF5F5" transform="translate(90,97)"/>
<path d="M0 0 C0.680625 0.70125 1.36125 1.4025 2.0625 2.125 C7.54314189 7.71381453 7.54314189 7.71381453 14 12 C14.12375 11.030625 14.2475 10.06125 14.375 9.0625 C14.58125 8.051875 14.7875 7.04125 15 6 C15.66 5.67 16.32 5.34 17 5 C17 6.32 17 7.64 17 9 C17.99 7.68 18.98 6.36 20 5 C22.4375 5.75 22.4375 5.75 25 7 C25.8125 9.125 25.8125 9.125 26 11 C26.66 10.67 27.32 10.34 28 10 C27.67 11.65 27.34 13.3 27 15 C26.01 15 25.02 15 24 15 C23.67 15.66 23.34 16.32 23 17 C39.78125238 17.62603636 51.75247741 16.13290324 64.734375 4.4375 C65.85822563 3.32627691 66.93686688 2.16944643 68 1 C69.20272819 3.40545638 69.10071472 4.94996953 69.0625 7.625 C69.05347656 8.44226563 69.04445313 9.25953125 69.03515625 10.1015625 C69.02355469 10.72804687 69.01195312 11.35453125 69 12 C68.02160156 11.93039063 68.02160156 11.93039063 67.0234375 11.859375 C60.93593784 11.60797383 57.63909763 11.95565848 53 16 C52.67 16.66 52.34 17.32 52 18 C39.94345613 22.0906131 26.40841471 20.0905272 15 15 C9.841133 12.9364532 5.47922746 12.7808309 0 13 C-0.19551338 11.39679026 -0.38111983 9.79237014 -0.5625 8.1875 C-0.71912109 6.84751953 -0.71912109 6.84751953 -0.87890625 5.48046875 C-1 3 -1 3 0 0 Z " fill="#BEBBBB" transform="translate(95,119)"/>
<path d="M0 0 C0.66 0.33 1.32 0.66 2 1 C1.41992188 1.42410156 0.83984375 1.84820312 0.2421875 2.28515625 C-4.72994685 6.01835943 -9.4953468 9.79112329 -13 15 C-13 15.66 -13 16.32 -13 17 C-11.35 17.33 -9.7 17.66 -8 18 C-7.17607446 20.88373938 -6.7779684 22.45972311 -7.9375 25.28125 C-9.14516621 28.37145472 -9.4072007 31.00921064 -9.625 34.3125 C-9.69976562 35.38113281 -9.77453125 36.44976562 -9.8515625 37.55078125 C-9.90054688 38.35902344 -9.94953125 39.16726562 -10 40 C-12.31 39.67 -14.62 39.34 -17 39 C-16.67 38.34 -16.34 37.68 -16 37 C-16.99 36.67 -17.98 36.34 -19 36 C-19 37.65 -19 39.3 -19 41 C-19.33 41 -19.66 41 -20 41 C-20.67547195 31.5433927 -17.99836657 22.85154252 -15.37109375 13.84375 C-14.89253744 11.46608076 -14.94276215 9.23437643 -15 6.8125 C-15.037569 5.20877332 -15.04673183 3.60348584 -15 2 C-14 1 -14 1 -11.34765625 0.9375 C-9.16015531 0.97911714 -6.9726553 1.02078369 -4.78515625 1.0625 C-2.04270691 1.19928462 -2.04270691 1.19928462 0 0 Z " fill="#CFC9C9" transform="translate(109,61)"/>
<path d="M0 0 C5.17588933 1.80088933 5.17588933 1.80088933 7.5 4.125 C2.75 7.125 2.75 7.125 0.5 7.125 C0.83 8.445 1.16 9.765 1.5 11.125 C0.84644531 10.80789062 0.19289062 10.49078125 -0.48046875 10.1640625 C-4.29295445 8.8521334 -7.80889571 8.67173638 -11.8125 8.5 C-12.92334961 8.44199219 -12.92334961 8.44199219 -14.05664062 8.3828125 C-15.87071309 8.28918295 -17.68532116 8.20603149 -19.5 8.125 C-18.51 7.135 -17.52 6.145 -16.5 5.125 C-17.16 4.135 -17.82 3.145 -18.5 2.125 C-18.5 1.135 -18.5 0.145 -18.5 -0.875 C-12.78402186 -3.73298907 -5.75451608 -1.86501786 0 0 Z " fill="#F8E5E5" transform="translate(141.5,58.875)"/>
<path d="M0 0 C3.36764314 0.77714842 5.07128511 2.06107284 7.4375 4.5625 C7.82421875 7 7.82421875 7 7.4375 9.5625 C5.6875 11.36328125 5.6875 11.36328125 3.4375 12.875 C2.695 13.38675781 1.9525 13.89851563 1.1875 14.42578125 C0.61 14.80089844 0.0325 15.17601563 -0.5625 15.5625 C-7.26709519 11.44871444 -7.26709519 11.44871444 -8.5 7.75 C-8.5309375 6.6671875 -8.5309375 6.6671875 -8.5625 5.5625 C-3.38053671 0.74206903 -3.38053671 0.74206903 0 0 Z " fill="#FEFEF6" transform="translate(129.5625,108.4375)"/>
<path d="M0 0 C3.42430894 1.23655601 6.40112619 2.40112619 9 5 C9.625 7.375 9.625 7.375 9 10 C4.38944444 14.93222222 4.38944444 14.93222222 0.4375 15.125 C-2.84844972 13.60840782 -4.76078077 11.83195373 -7 9 C-7.1875 7 -7.1875 7 -6 5 C-4.08749722 3.17156328 -2.10851185 1.61503035 0 0 Z " fill="#FEFEF6" transform="translate(128,71)"/>
<path d="M0 0 C3.57417612 1.60837925 4.74450695 3.68153286 6.5 7.125 C6.5 10.95542317 3.9115263 13.32451785 1.5 16.125 C-1.25 16 -1.25 16 -4.5 15.125 C-7 12.375 -7 12.375 -8.5 9.125 C-7.62979484 4.5564229 -4.93560883 0.24678044 0 0 Z " fill="#FEFEF6" transform="translate(111.5,88.875)"/>
<path d="M0 0 C2.03100354 2.12620683 3.53485728 4.4586905 5 7 C1.25 12.75 1.25 12.75 -1 15 C-3.9375 14.9375 -3.9375 14.9375 -7 14 C-9.52366824 11.15069714 -10.02743228 9.68580708 -9.875 5.875 C-8.21871382 0.43291684 -5.73766363 -1.14753273 0 0 Z " fill="#FEFEF7" transform="translate(151,90)"/>
<path d="M0 0 C0.33 1.32 0.66 2.64 1 4 C3.41619823 4.25030977 3.41619823 4.25030977 6 4 C6.66 3.01 7.32 2.02 8 1 C7.65532373 8.23820173 5.89785009 12.91590189 2 19 C-1 18 -1 18 -3 15 C-5.05925139 14.27617533 -5.05925139 14.27617533 -7 14 C-6.66226563 13.40832031 -6.32453125 12.81664063 -5.9765625 12.20703125 C-3.72358842 8.21549047 -1.5380179 4.33441407 0 0 Z " fill="#F9F3F3" transform="translate(160,102)"/>
<path d="M0 0 C2 2 2 2 2.1953125 4.1640625 C2.17210937 4.97617188 2.14890625 5.78828125 2.125 6.625 C2.10695312 7.44226563 2.08890625 8.25953125 2.0703125 9.1015625 C2.04710937 9.72804687 2.02390625 10.35453125 2 11 C1.02160156 10.93039063 1.02160156 10.93039063 0.0234375 10.859375 C-6.06406216 10.60797383 -9.36090237 10.95565848 -14 15 C-14.33 15.66 -14.66 16.32 -15 17 C-26.02138284 20.73939775 -39.36947712 19.44549138 -50 15 C-46.02496432 13.67498811 -43.99306701 14.84847238 -40 16 C-26.64861479 17.25351433 -16.8362312 14.66585656 -6.10546875 6.75 C-3.68418536 4.73750472 -1.74767006 2.62150509 0 0 Z " fill="#E95436" transform="translate(162,120)"/>
<path d="M0 0 C0.99 0 1.98 0 3 0 C2.67 8.25 2.34 16.5 2 25 C2.66 25 3.32 25 4 25 C4 19.06 4 13.12 4 7 C4.33 7 4.66 7 5 7 C5 13.27 5 19.54 5 26 C4.34 26 3.68 26 3 26 C3 27.65 3 29.3 3 31 C2.01 31.33 1.02 31.66 0 32 C-2.9481667 21.31289571 -2.9481667 10.68710429 0 0 Z " fill="#FBD41A" transform="translate(56,81)"/>
<path d="M0 0 C0.66 0 1.32 0 2 0 C6.44100422 8.88200844 2.34744046 24.21997946 -0.625 33.25 C-1.07875 34.4875 -1.5325 35.725 -2 37 C-2.99 37 -3.98 37 -5 37 C-6.5565808 33.88683841 -5.04157839 31.13056985 -4.125 27.9375 C-2.07034284 20.38782949 -1.42176887 13.14826022 -1.17578125 5.3515625 C-1 2 -1 2 0 0 Z " fill="#FCDD18" transform="translate(202,88)"/>
<path d="M0 0 C0.99 0 1.98 0 3 0 C8.01568955 12.22574327 8.13253551 23.01942127 4.94921875 35.76953125 C4.63597656 36.50558594 4.32273438 37.24164063 4 38 C2.515 38.495 2.515 38.495 1 39 C-0.66710346 40.49985609 -0.66710346 40.49985609 -2 42 C0 36 0 36 0.80078125 34.125 C5.22541169 23.052939 3.47052009 11.09326957 0 0 Z " fill="#E09936" transform="translate(165,78)"/>
<path d="M0 0 C0.12375 0.969375 0.2475 1.93875 0.375 2.9375 C0.58125 3.948125 0.7875 4.95875 1 6 C1.66 6.33 2.32 6.66 3 7 C1.4722133 10.43752007 -0.50181056 13.18953688 -3 16 C-3.66 16 -4.32 16 -5 16 C-5 15.01 -5 14.02 -5 13 C-5.598125 13.20625 -6.19625 13.4125 -6.8125 13.625 C-9 14 -9 14 -12 12 C-3.26213592 0 -3.26213592 0 0 0 Z " fill="#F7F4F4" transform="translate(106,66)"/>
<path d="M0 0 C0.66 0.33 1.32 0.66 2 1 C1.41992188 1.42410156 0.83984375 1.84820312 0.2421875 2.28515625 C-4.26333939 5.66801885 -8.18934397 9.01473456 -11.7109375 13.421875 C-13.04832978 15.05916737 -14.48400797 16.52833522 -16 18 C-15.835 17.21625 -15.67 16.4325 -15.5 15.625 C-14.96104335 11.71756429 -14.96839295 8.00906997 -15.0625 4.07421875 C-15 2 -15 2 -14 1 C-10.92441137 0.92752663 -7.86084597 1.00384561 -4.78515625 1.0625 C-2.04270691 1.19928462 -2.04270691 1.19928462 0 0 Z " fill="#ED912F" transform="translate(109,61)"/>
<path d="M0 0 C1.31896465 0.92838287 2.62998689 1.86805732 3.9375 2.8125 C4.66839844 3.33457031 5.39929688 3.85664062 6.15234375 4.39453125 C8 6 8 6 9 9 C8.01 9.99 7.02 10.98 6 12 C6 10.68 6 9.36 6 8 C5.67 10.31 5.34 12.62 5 15 C0.71522208 12.69281189 -2.72291137 10.67033927 -6 7 C-4.59284684 3.59937986 -2.97131772 2.10770302 0 0 Z " fill="#FCF8F9" transform="translate(105,117)"/>
<path d="M0 0 C1.35158203 0.15275391 1.35158203 0.15275391 2.73046875 0.30859375 C3.41753906 0.39238281 4.10460937 0.47617187 4.8125 0.5625 C4.8125 4.22916667 4.8125 7.89583333 4.8125 11.5625 C5.12728446 12.90033393 5.45837656 14.23453709 5.8125 15.5625 C2.21857398 12.07125758 -0.98371606 8.42347039 -4.1875 4.5625 C-5.50293863 3.21150897 -6.82925118 1.87044331 -8.1875 0.5625 C-4.98734144 -0.50421952 -3.30205706 -0.38595472 0 0 Z M-1.1875 10.5625 C-0.1975 11.2225 0.7925 11.8825 1.8125 12.5625 C1.4825 13.5525 1.1525 14.5425 0.8125 15.5625 C-1.25 16.25 -1.25 16.25 -3.1875 16.5625 C-3.5175 15.2425 -3.8475 13.9225 -4.1875 12.5625 C-3.1975 11.9025 -2.2075 11.2425 -1.1875 10.5625 Z " fill="#CE7142" transform="translate(159.1875,62.4375)"/>
<path d="M0 0 C4.27560164 0.48569657 5.98538769 1.55959928 8.6875 4.875 C9.26886719 5.57367188 9.85023438 6.27234375 10.44921875 6.9921875 C14 11.58942065 14 11.58942065 14 15 C10.69084419 14.38554825 8.60583297 13.21831218 5.9375 11.1875 C5.26589844 10.68605469 4.59429687 10.18460938 3.90234375 9.66796875 C1.90825225 7.91955587 0.42262305 6.23747993 -1 4 C-0.6875 1.75 -0.6875 1.75 0 0 Z " fill="#0CA858" transform="translate(132,99)"/>
<path d="M0 0 C0.7947876 0.00491455 1.5895752 0.0098291 2.40844727 0.01489258 C8.25409905 0.13122099 14.03280926 0.40269427 19.25 3.3125 C21.375 6 21.375 6 22.25 8.3125 C21.68152344 8.11914062 21.11304688 7.92578125 20.52734375 7.7265625 C18.91361429 7.18236659 17.29756642 6.64501404 15.6796875 6.11328125 C13.71848283 5.46690351 11.76429556 4.79925665 9.8125 4.125 C1.99758901 2.34265188 -5.08672828 3.33634135 -12.75 5.3125 C-14.41534667 5.65236667 -16.08129513 5.98952486 -17.75 6.3125 C-17.09 5.9825 -16.43 5.6525 -15.75 5.3125 C-15.42 4.3225 -15.09 3.3325 -14.75 2.3125 C-9.90049978 0.06094632 -5.24004223 -0.0379116 0 0 Z " fill="#E4882E" transform="translate(128.75,54.6875)"/>
<path d="M0 0 C5.88946796 1.32513029 10.0949292 4.4984506 14 9 C15 12.4375 15 12.4375 15 15 C11.70765706 15 9.62457968 14.54181964 7.11328125 12.36328125 C3.61668955 8.51483127 1.16477483 5.17677703 0 0 Z " fill="#09A858" transform="translate(112,80)"/>
<path d="M0 0 C2.21355255 1.50709961 4.0275352 3.16514902 6 5 C3.25 9.875 3.25 9.875 1 11 C0.34 10.67 -0.32 10.34 -1 10 C-1 9.34 -1 8.68 -1 8 C-1.5775 8.2475 -2.155 8.495 -2.75 8.75 C-3.86375 8.87375 -3.86375 8.87375 -5 9 C-7.25 7.1875 -7.25 7.1875 -9 5 C-9 4.34 -9 3.68 -9 3 C-6.0840135 0.192013 -4.01340593 -0.76445827 0 0 Z " fill="#D3CFCF" transform="translate(151,63)"/>
<path d="M0 0 C0.66 0.33 1.32 0.66 2 1 C-1.09582904 6.39715328 -4.1928912 10.994076 -9 15 C-11.875 15.375 -11.875 15.375 -14 15 C-13.8515938 10.10259551 -11.2908947 7.76821969 -7.9140625 4.5859375 C-5.43618178 2.53283633 -3.01481004 1.12178978 0 0 Z " fill="#06A759" transform="translate(145,80)"/>
<path d="M0 0 C0.4375 2.0625 0.4375 2.0625 0 5 C-3.18044505 9.10582878 -7.23016106 12.88007158 -12 15 C-12.99 14.67 -13.98 14.34 -15 14 C-7.2893401 0 -7.2893401 0 0 0 Z " fill="#04A759" transform="translate(127,99)"/>
<path d="M0 0 C0.680625 0.70125 1.36125 1.4025 2.0625 2.125 C6.62894069 6.67850459 11.31088583 10.89684681 17 14 C16.01 14.495 16.01 14.495 15 15 C14.154375 14.690625 13.30875 14.38125 12.4375 14.0625 C8.18346856 12.74761756 4.41143136 12.82354275 0 13 C-0.19551338 11.39679026 -0.38111983 9.79237014 -0.5625 8.1875 C-0.71912109 6.84751953 -0.71912109 6.84751953 -0.87890625 5.48046875 C-1 3 -1 3 0 0 Z " fill="#E6842F" transform="translate(95,119)"/>
<path d="M0 0 C0 0.66 0 1.32 0 2 C-10.19521708 4.97877647 -19.46546602 5.34063763 -30 5 C-29 3 -29 3 -26 2 C-24.5679609 1.80073571 -23.13067565 1.63764387 -21.69140625 1.5 C-20.86189453 1.4175 -20.03238281 1.335 -19.17773438 1.25 C-18.31470703 1.1675 -17.45167969 1.085 -16.5625 1 C-14.85520486 0.83605868 -13.14816011 0.6694837 -11.44140625 0.5 C-10.30747437 0.39171875 -10.30747437 0.39171875 -9.15063477 0.28125 C-6.98865841 0.05182541 -6.98865841 0.05182541 -4.90991211 -0.59375 C-3 -1 -3 -1 0 0 Z " fill="#EE4435" transform="translate(151,164)"/>
<path d="M0 0 C1.08006089 3.24018267 0.92645816 3.97409378 0.0625 7.125 C-2.0021055 15.98144564 -0.849079 22.452763 2.02734375 31.08203125 C2.79427801 33.38283404 3.45698629 35.63931934 4 38 C3.071875 37.0409375 3.071875 37.0409375 2.125 36.0625 C0.17402388 33.96116416 0.17402388 33.96116416 -2 33 C-3.87229822 27.13258658 -4.31057526 21.75319688 -4.25 15.625 C-4.25773437 14.81933594 -4.26546875 14.01367188 -4.2734375 13.18359375 C-4.25357143 7.25357143 -4.25357143 7.25357143 -2 5 C-1.29289322 3.35008418 -0.62056011 1.68437744 0 0 Z " fill="#E47932" transform="translate(91,81)"/>
<path d="M0 0 C3.375 0.3125 3.375 0.3125 7 1 C9.29013653 4.4352048 9.17842973 5.985331 9 10 C6.69 9.67 4.38 9.34 2 9 C2.33 8.34 2.66 7.68 3 7 C2.01 6.67 1.02 6.34 0 6 C0 7.65 0 9.3 0 11 C-0.33 11 -0.66 11 -1 11 C-1.0270043 9.54176788 -1.04639787 8.08339325 -1.0625 6.625 C-1.07410156 5.81289062 -1.08570312 5.00078125 -1.09765625 4.1640625 C-1 2 -1 2 0 0 Z " fill="#C3B3B4" transform="translate(90,91)"/>
<path d="M0 0 C0.99 0.33 1.98 0.66 3 1 C2.67 1.66 2.34 2.32 2 3 C3.65 3 5.3 3 7 3 C7.33 2.34 7.66 1.68 8 1 C9 2 9 2 9.0625 5.5625 C9.041875 6.696875 9.02125 7.83125 9 9 C7.25 10.0625 7.25 10.0625 5 11 C3.68 10.67 2.36 10.34 1 10 C0.67 6.7 0.34 3.4 0 0 Z " fill="#F5F2F2" transform="translate(160,96)"/>
<path d="M0 0 C0 0.33 0 0.66 0 1 C-0.845625 1.03738281 -1.69125 1.07476562 -2.5625 1.11328125 C-13.68078161 1.46338119 -13.68078161 1.46338119 -22.8984375 6.90625 C-24.08931619 8.29309607 -25.24666022 9.70984597 -26.359375 11.16015625 C-28.10463399 13.11733954 -29.6010164 13.99346993 -32 15 C-31.30504492 10.06912827 -28.09227319 7.90946427 -24.4453125 4.83984375 C-16.8368125 -0.88476248 -9.28504622 -0.35210147 0 0 Z " fill="#F37529" transform="translate(136,67)"/>
<path d="M0 0 C-0.33 0.99 -0.66 1.98 -1 3 C-1.66 2.67 -2.32 2.34 -3 2 C-1.6910428 5.12197478 -1.6910428 5.12197478 1 7 C0.67 7.99 0.34 8.98 0 10 C-1.98 10.33 -3.96 10.66 -6 11 C-6.061875 10.4225 -6.12375 9.845 -6.1875 9.25 C-7.32027301 6.11309013 -9.34197595 4.90832496 -12 3 C-10.56445975 2.49440092 -9.1264798 1.9957251 -7.6875 1.5 C-6.88699219 1.2215625 -6.08648437 0.943125 -5.26171875 0.65625 C-3 0 -3 0 0 0 Z " fill="#FBF4F4" transform="translate(146,124)"/>
<path d="M0 0 C2 2 2 2 2.1953125 4.1640625 C2.17210937 4.97617188 2.14890625 5.78828125 2.125 6.625 C2.10695312 7.44226563 2.08890625 8.25953125 2.0703125 9.1015625 C2.03550781 10.04128906 2.03550781 10.04128906 2 11 C-0.64 11 -3.28 11 -6 11 C-6 7.39426104 -5.18292538 6.58663434 -3 3.8125 C-2.443125 3.09707031 -1.88625 2.38164063 -1.3125 1.64453125 C-0.879375 1.10183594 -0.44625 0.55914062 0 0 Z " fill="#CF8C41" transform="translate(162,120)"/>
<path d="M0 0 C1.32 0.66 2.64 1.32 4 2 C4 2.99 4 3.98 4 5 C2.35 5.33 0.7 5.66 -1 6 C-0.67 7.32 -0.34 8.64 0 10 C-0.99 10.495 -0.99 10.495 -2 11 C-3.23697917 9.47005208 -4.47395833 7.94010417 -5.7109375 6.41015625 C-6.9666391 4.86733563 -6.9666391 4.86733563 -9 4 C-8.67 3.01 -8.34 2.02 -8 1 C-7.34 1.33 -6.68 1.66 -6 2 C-6 2.66 -6 3.32 -6 4 C-4.05925139 3.72382467 -4.05925139 3.72382467 -2 3 C-1.34 2.01 -0.68 1.02 0 0 Z " fill="#F9F4F4" transform="translate(156,69)"/>
<path d="M0 0 C3.21816593 4.8272489 4.11105007 9.25096135 3.75 14.9375 C3.5025 15.948125 3.255 16.95875 3 18 C2.34 18.33 1.68 18.66 1 19 C0.86722656 18.10796875 0.73445312 17.2159375 0.59765625 16.296875 C0.42105469 15.12640625 0.24445313 13.9559375 0.0625 12.75 C-0.11152344 11.58984375 -0.28554687 10.4296875 -0.46484375 9.234375 C-0.90776579 6.12878308 -0.90776579 6.12878308 -1.69140625 3.703125 C-1.79324219 3.14109375 -1.89507812 2.5790625 -2 2 C-1.34 1.34 -0.68 0.68 0 0 Z " fill="#EF4734" transform="translate(197,73)"/>
<path d="M0 0 C2.97 0 5.94 0 9 0 C8.67 0.66 8.34 1.32 8 2 C7.34 2 6.68 2 6 2 C5.67 2.66 5.34 3.32 5 4 C5.99 4.33 6.98 4.66 8 5 C7.01 5.66 6.02 6.32 5 7 C5.99 7.33 6.98 7.66 8 8 C3.545 8.495 3.545 8.495 -1 9 C-0.01 8.01 0.98 7.02 2 6 C1.34 5.01 0.68 4.02 0 3 C0 2.01 0 1.02 0 0 Z " fill="#F9F7F7" transform="translate(123,58)"/>
<path d="M0 0 C1.03253906 0.01353516 1.03253906 0.01353516 2.0859375 0.02734375 C3.76577838 0.05067487 5.44543746 0.08653674 7.125 0.125 C7.125 0.455 7.125 0.785 7.125 1.125 C6.02800781 1.31835938 4.93101562 1.51171875 3.80078125 1.7109375 C2.34630418 1.97368175 0.89187983 2.23671801 -0.5625 2.5 C-1.28373047 2.62632813 -2.00496094 2.75265625 -2.74804688 2.8828125 C-5.91973283 3.46211587 -8.7115356 4.05781049 -11.70703125 5.2890625 C-13.875 6.125 -13.875 6.125 -16.875 5.125 C-16.215 5.125 -15.555 5.125 -14.875 5.125 C-14.545 4.135 -14.215 3.145 -13.875 2.125 C-9.29395109 0.02245171 -4.95168002 -0.12475163 0 0 Z " fill="#E4982E" transform="translate(127.875,54.875)"/>
<path d="M0 0 C1.32 0.33 2.64 0.66 4 1 C3.67 1.33 3.34 1.66 3 2 C4.32 2.33 5.64 2.66 7 3 C7.33 2.34 7.66 1.68 8 1 C8.33 3.31 8.66 5.62 9 8 C7.35 7.67 5.7 7.34 4 7 C3.67 7.66 3.34 8.32 3 9 C2.01 8.67 1.02 8.34 0 8 C0 5.36 0 2.72 0 0 Z " fill="#F1F1F1" transform="translate(90,97)"/>
<path d="M0 0 C0.99 0 1.98 0 3 0 C5.86575468 6.36506953 6.28658695 11.09724599 5.6875 18 C5.62626953 18.87011719 5.56503906 19.74023438 5.50195312 20.63671875 C5.35036201 22.75899443 5.17740197 24.87972585 5 27 C4.67 27 4.34 27 4 27 C3.96261719 26.05640625 3.92523438 25.1128125 3.88671875 24.140625 C3.45729252 15.75418336 2.39764002 8.09768989 0 0 Z " fill="#E86333" transform="translate(165,78)"/>
<path d="M0 0 C2.97 0.99 5.94 1.98 9 3 C4.25 7 4.25 7 2 7 C2.33 8.32 2.66 9.64 3 11 C1.02 10.01 -0.96 9.02 -3 8 C-2 6 -2 6 1 5 C1.33 4.01 1.66 3.02 2 2 C1.34 2 0.68 2 0 2 C0 1.34 0 0.68 0 0 Z " fill="#FCF5F6" transform="translate(140,59)"/>
<path d="M0 0 C0 0.33 0 0.66 0 1 C-1.093125 1.103125 -2.18625 1.20625 -3.3125 1.3125 C-6.90549982 1.62273564 -6.90549982 1.62273564 -8.5 3.5 C-10.99379321 5.99379321 -13.5997646 5.87856302 -17 6 C-18.71875 4.5078125 -18.71875 4.5078125 -20 3 C-13.19925959 1.09579269 -7.08076251 -0.40850553 0 0 Z " fill="#FBD91A" transform="translate(126,22)"/>
<path d="M0 0 C2.97 0 5.94 0 9 0 C6 3 3 6 0 9 C0 6.03 0 3.06 0 0 Z " fill="#080ADB" transform="translate(95,63)"/>
<path d="M0 0 C0.99 0.66 1.98 1.32 3 2 C2.34 4.97 1.68 7.94 1 11 C0.34 11 -0.32 11 -1 11 C-1.66 12.32 -2.32 13.64 -3 15 C-2.35812082 9.86496656 -1.31727753 5.0056546 0 0 Z " fill="#EE4535" transform="translate(61,73)"/>
<path d="M0 0 C-0.125 1.875 -0.125 1.875 -1 4 C-4.0625 5.25 -4.0625 5.25 -7 6 C-7.33 4.35 -7.66 2.7 -8 1 C-4.93251126 -0.86240388 -3.40254489 -1.2151946 0 0 Z " fill="#ABA6A6" transform="translate(98,104)"/>
<path d="M0 0 C1.9375 0.6875 1.9375 0.6875 4 2 C4.75 4.625 4.75 4.625 5 7 C3.02 7.33 1.04 7.66 -1 8 C-0.67 5.36 -0.34 2.72 0 0 Z " fill="#ABA3A3" transform="translate(136,129)"/>
<path d="M0 0 C1.14926266 0.95421808 2.29430541 1.91352045 3.4375 2.875 C4.07558594 3.40867187 4.71367188 3.94234375 5.37109375 4.4921875 C7 6 7 6 8 8 C5.36 8 2.72 8 0 8 C0 5.36 0 2.72 0 0 Z " fill="#0809DE" transform="translate(95,123)"/>
<path d="M0 0 C2.375 0.25 2.375 0.25 5 1 C6.3125 3.0625 6.3125 3.0625 7 5 C4.36 5 1.72 5 -1 5 C-0.67 3.35 -0.34 1.7 0 0 Z " fill="#AFA6A7" transform="translate(91,84)"/>
<path d="M0 0 C2.64 0 5.28 0 8 0 C8 2.31 8 4.62 8 7 C6.66382648 6.02471263 5.3311249 5.04466681 4 4.0625 C3.2575 3.51722656 2.515 2.97195312 1.75 2.41015625 C1.1725 1.94480469 0.595 1.47945313 0 1 C0 0.67 0 0.34 0 0 Z " fill="#0405EA" transform="translate(155,63)"/>
<path d="M0 0 C0.33 0 0.66 0 1 0 C1 2.31 1 4.62 1 7 C-1.31 7 -3.62 7 -6 7 C-5.02433888 5.83040013 -4.044375 4.66438823 -3.0625 3.5 C-2.51722656 2.8503125 -1.97195312 2.200625 -1.41015625 1.53125 C-0.71212891 0.77328125 -0.71212891 0.77328125 0 0 Z " fill="#0708E3" transform="translate(162,124)"/>
<path d="M0 0 C0 2.31 0 4.62 0 7 C-0.7425 6.525625 -1.485 6.05125 -2.25 5.5625 C-4.61050015 4.22130673 -6.36648477 3.487688 -9 3 C-9 2.34 -9 1.68 -9 1 C-1.125 0 -1.125 0 0 0 Z " fill="#FEFBFB" transform="translate(99,88)"/>
<path d="M0 0 C0.33 0.66 0.66 1.32 1 2 C1.66 2 2.32 2 3 2 C4.625 3.5 4.625 3.5 6 5 C5.34 6.32 4.68 7.64 4 9 C3.67 8.01 3.34 7.02 3 6 C2.34 6 1.68 6 1 6 C-0.625 4 -0.625 4 -2 2 C-1.34 1.34 -0.68 0.68 0 0 Z " fill="#FDF6F6" transform="translate(103,68)"/>
<path d="M0 0 C0.99 0.99 1.98 1.98 3 3 C1.74458443 5.51083114 0.49936512 5.87125446 -2 7 C-2.66 5.35 -3.32 3.7 -4 2 C-2.68 1.34 -1.36 0.68 0 0 Z " fill="#5C5A5B" transform="translate(147,124)"/>
<path d="M0 0 C0.99 0.66 1.98 1.32 3 2 C2.67 2.99 2.34 3.98 2 5 C-0.0625 5.6875 -0.0625 5.6875 -2 6 C-2.33 4.68 -2.66 3.36 -3 2 C-2.01 1.34 -1.02 0.68 0 0 Z " fill="#8D8C8C" transform="translate(158,73)"/>
<path d="M0 0 C0.66 0 1.32 0 2 0 C2 0.99 2 1.98 2 3 C2.99 3 3.98 3 5 3 C3.68 4.32 2.36 5.64 1 7 C0.01 6.01 -0.98 5.02 -2 4 C-1.34 2.68 -0.68 1.36 0 0 Z " fill="#636162" transform="translate(151,67)"/>
<path d="M0 0 C3 1 3 1 5 4 C5 4.99 5 5.98 5 7 C3.68 7 2.36 7 1 7 C0.67 4.69 0.34 2.38 0 0 Z " fill="#918E8E" transform="translate(105,65)"/>
<path d="M0 0 C1.65 0.33 3.3 0.66 5 1 C4.67 2.32 4.34 3.64 4 5 C2.35 4.67 0.7 4.34 -1 4 C-0.67 2.68 -0.34 1.36 0 0 Z " fill="#868586" transform="translate(162,102)"/>
<path d="M0 0 C3.63 0.33 7.26 0.66 11 1 C7.64672361 3.23551759 7.09256343 3.17283528 3.3125 2.625 C2.50425781 2.51414063 1.69601563 2.40328125 0.86328125 2.2890625 C0.24839844 2.19367188 -0.36648437 2.09828125 -1 2 C-0.67 1.34 -0.34 0.68 0 0 Z " fill="#EC2437" transform="translate(114,165)"/>
<path d="M0 0 C0.80824219 0.10183594 1.61648437 0.20367188 2.44921875 0.30859375 C3.06410156 0.39238281 3.67898437 0.47617187 4.3125 0.5625 C4.3125 0.8925 4.3125 1.2225 4.3125 1.5625 C0.6825 1.8925 -2.9475 2.2225 -6.6875 2.5625 C-7.0175 1.9025 -7.3475 1.2425 -7.6875 0.5625 C-4.59271121 -0.46909626 -3.16118607 -0.41232862 0 0 Z " fill="#EC2437" transform="translate(120.6875,26.4375)"/>
<path d="M0 0 C1.32 0 2.64 0 4 0 C4 0.66 4 1.32 4 2 C4.66 2.33 5.32 2.66 6 3 C5.01 3.33 4.02 3.66 3 4 C2.67 4.66 2.34 5.32 2 6 C1.01 5.01 0.02 4.02 -1 3 C-0.67 2.01 -0.34 1.02 0 0 Z " fill="#6C6B6B" transform="translate(100,72)"/>
<path d="M0 0 C5.37305699 -0.44041451 5.37305699 -0.44041451 8 0 C10 2.5 10 2.5 11 5 C9.53932801 4.54917531 8.08151968 4.08906463 6.625 3.625 C5.81289062 3.36976562 5.00078125 3.11453125 4.1640625 2.8515625 C2 2 2 2 0 0 Z " fill="#DC523C" transform="translate(140,58)"/>
<path d="M0 0 C1.65 0 3.3 0 5 0 C5 1.65 5 3.3 5 5 C3.35 5 1.7 5 0 5 C0 4.34 0 3.68 0 3 C0.66 2.67 1.32 2.34 2 2 C1.34 1.34 0.68 0.68 0 0 Z " fill="#706E6E" transform="translate(162,94)"/>
<path d="M0 0 C1.98 0.495 1.98 0.495 4 1 C3.67 2.32 3.34 3.64 3 5 C1.68 5.33 0.36 5.66 -1 6 C-0.67 4.02 -0.34 2.04 0 0 Z " fill="#807E7F" transform="translate(138,60)"/>
<path d="M0 0 C-1.75 1.5625 -1.75 1.5625 -4 3 C-6.25 2.6875 -6.25 2.6875 -8 2 C-5.14066998 -0.85933002 -3.8625627 -1.2875209 0 0 Z " fill="#EC2637" transform="translate(158,162)"/>
<path d="M0 0 C0.598125 0.350625 1.19625 0.70125 1.8125 1.0625 C0.8225 2.0525 -0.1675 3.0425 -1.1875 4.0625 C-2.5075 2.7425 -3.8275 1.4225 -5.1875 0.0625 C-2.1875 -0.9375 -2.1875 -0.9375 0 0 Z " fill="#5D5B5C" transform="translate(103.1875,116.9375)"/>
<path d="M0 0 C0.99 0.33 1.98 0.66 3 1 C3 2.65 3 4.3 3 6 C1.68 6 0.36 6 -1 6 C-0.67 5.34 -0.34 4.68 0 4 C-0.33 3.01 -0.66 2.02 -1 1 C-0.67 0.67 -0.34 0.34 0 0 Z " fill="#5E5D5D" transform="translate(129,59)"/>
</svg>
